<svg xmlns="http://www.w3.org/2000/svg" width="200.288" height="195.347" viewBox="0 0 200.288 195.347">
  <path id="Octicons-mark-github" d="M100.144,0A100.148,100.148,0,0,0,68.474,195.156c5.007.876,6.885-2.128,6.885-4.757,0-2.378-.125-10.265-.125-18.652-25.161,4.632-31.671-6.134-33.673-11.767-1.127-2.879-6.009-11.767-10.265-14.145-3.505-1.878-8.512-6.509-.125-6.635,7.886-.125,13.519,7.26,15.4,10.265,9.013,15.147,23.409,10.891,29.167,8.262.876-6.509,3.505-10.891,6.384-13.394-22.282-2.5-45.566-11.141-45.566-49.446A38.974,38.974,0,0,1,46.817,67.973c-1-2.5-4.506-12.768,1-26.538,0,0,8.387-2.629,27.54,10.265a94.416,94.416,0,0,1,50.072,0c19.153-13.019,27.54-10.265,27.54-10.265,5.508,13.77,2,24.035,1,26.538a38.748,38.748,0,0,1,10.265,26.914c0,38.43-23.409,46.943-45.691,49.446,3.63,3.13,6.76,9.138,6.76,18.527,0,13.394-.125,24.16-.125,27.54,0,2.629,1.878,5.758,6.885,4.757A100.2,100.2,0,0,0,100.144,0Z" fill="#1b1f23" fill-rule="evenodd"/>
</svg>
